<svg width="170" height="137" viewBox="0 0 170 137" fill="none" xmlns="http://www.w3.org/2000/svg">
<g clip-path="url(#clip0_0_58)">
<path d="M38.5177 6.49028C38.5177 6.49028 11.1966 14.6389 2.51637 48.2546C-7.70908 87.8536 15.5425 106.351 30.839 117.167C46.1355 127.984 69.7692 139.045 99.1843 136.677C124.252 134.658 127.072 120.781 146.248 109.447C165.424 98.1129 172.612 77.9193 169.171 51.8017C165.729 25.6842 140.929 7.50073 116.836 11.9357C92.7431 16.3707 85.4854 -12.3894 38.5182 6.48983L38.5177 6.49028Z" fill="#F3F5F8"/>
<path opacity="0.1" d="M106.47 63.5842C106.47 63.5842 105.712 61.8107 107.228 58.8121C108.745 55.8135 112.748 53.7446 114.56 50.4081C116.372 47.0719 120.291 42.7222 126.57 44.3692C132.848 46.0162 131.921 55.476 128.045 58.3475C124.168 61.219 118.142 59.7413 115.614 61.5148C113.086 63.2884 107.945 66.2869 106.471 63.5842H106.47Z" fill="#202A44"/>
<path opacity="0.1" d="M41.0307 52.1821C39.3452 55.0114 41.7889 59.1923 45.076 60.1215C48.3627 61.0507 50.3012 60.7127 51.9445 62.8242C53.5878 64.9358 55.2733 62.6977 54.515 59.2345C53.7567 55.7718 51.5334 55.6919 50.7648 53.3644C48.7842 47.3678 42.7165 49.3523 41.0311 52.1821H41.0307Z" fill="#202A44"/>
<path opacity="0.1" d="M55.3639 32.1433C54.8797 31.8709 54.5836 31.3511 54.5747 30.7949C54.5577 29.7553 54.2401 27.4785 51.8595 26.8016C48.7413 25.9146 46.0445 22.0717 46.9296 19.3689C47.8146 16.6662 52.1126 14.8505 54.3458 16.8772C56.579 18.9043 56.2431 22.0542 57.422 24.4364C59.6341 28.9078 57.3297 33.2494 55.3643 32.1433H55.3639Z" fill="#202A44"/>
<path opacity="0.1" d="M103.942 31.3201C103.942 31.3201 105.459 29.8419 105.291 27.5616C105.122 25.2812 104.953 23.3384 107.819 21.6915C110.684 20.0445 113.508 23.6343 112.327 26.0412C111.148 28.4481 109.47 28.2627 108.451 30.3909C106.934 33.5582 102.299 34.1916 103.942 31.3201H103.942Z" fill="#202A44"/>
<path d="M30.804 78.1416C30.6642 78.0015 30.4372 78.0015 30.2974 78.1416L29.1826 79.2589L28.0678 78.1416C27.9281 78.0015 27.701 78.0015 27.5612 78.1416C27.4215 78.2816 27.4215 78.5092 27.5612 78.6493L28.676 79.7665L27.5612 80.8838C27.4215 81.0239 27.4215 81.2515 27.5612 81.3915C27.6311 81.4615 27.7229 81.4966 27.8143 81.4966C27.9057 81.4966 27.9975 81.4615 28.0673 81.3915L29.1822 80.2742L30.297 81.3915C30.3668 81.4615 30.4587 81.4966 30.55 81.4966C30.6414 81.4966 30.7332 81.4615 30.8031 81.3915C30.9428 81.2515 30.9428 81.0239 30.8031 80.8838L29.6883 79.7665L30.8031 78.6493C30.9428 78.5092 30.9428 78.2816 30.8031 78.1416H30.804Z" fill="#DEE1E6"/>
<path d="M26.6827 79.3905H13.0685C12.8706 79.3905 12.7102 79.5512 12.7102 79.7497C12.7102 79.9481 12.8706 80.1088 13.0685 80.1088H26.6832C26.8812 80.1088 27.0415 79.9481 27.0415 79.7497C27.0415 79.5512 26.8812 79.3905 26.6832 79.3905H26.6827Z" fill="#DEE1E6"/>
<path d="M10.7369 78.4935C10.0552 78.4935 9.50024 79.0497 9.50024 79.7329C9.50024 80.4161 10.0547 80.9723 10.7369 80.9723C11.419 80.9723 11.9735 80.4165 11.9735 79.7329C11.9735 79.0492 11.419 78.4935 10.7369 78.4935ZM10.7369 80.254C10.4502 80.254 10.2169 80.0202 10.2169 79.7329C10.2169 79.4456 10.4502 79.2117 10.7369 79.2117C11.0235 79.2117 11.2569 79.4456 11.2569 79.7329C11.2569 80.0202 11.0235 80.254 10.7369 80.254Z" fill="#DEE1E6"/>
<path d="M137.246 34.7693C137.315 34.8393 137.407 34.8744 137.499 34.8744C137.59 34.8744 137.682 34.8393 137.752 34.7693L138.867 33.652L139.981 34.7693C140.051 34.8393 140.143 34.8744 140.234 34.8744C140.326 34.8744 140.418 34.8393 140.487 34.7693C140.627 34.6293 140.627 34.4017 140.487 34.2616L139.373 33.1444L140.487 32.0271C140.627 31.887 140.627 31.6594 140.487 31.5194C140.348 31.3793 140.121 31.3793 139.981 31.5194L138.866 32.6367L137.751 31.5194C137.612 31.3793 137.384 31.3793 137.245 31.5194C137.105 31.6594 137.105 31.887 137.245 32.0271L138.36 33.1444L137.245 34.2616C137.105 34.4017 137.105 34.6293 137.245 34.7693H137.246Z" fill="#DEE1E6"/>
<path d="M136.725 33.1273C136.725 32.9289 136.565 32.7682 136.367 32.7682H122.752C122.554 32.7682 122.394 32.9289 122.394 33.1273C122.394 33.3257 122.554 33.4864 122.752 33.4864H136.367C136.565 33.4864 136.725 33.3257 136.725 33.1273Z" fill="#DEE1E6"/>
<path d="M120.421 31.8709C119.74 31.8709 119.185 32.4266 119.185 33.1102C119.185 33.7939 119.739 34.3496 120.421 34.3496C121.104 34.3496 121.658 33.7939 121.658 33.1102C121.658 32.4266 121.103 31.8709 120.421 31.8709ZM120.421 33.6314C120.135 33.6314 119.901 33.3975 119.901 33.1102C119.901 32.823 120.135 32.5891 120.421 32.5891C120.708 32.5891 120.941 32.823 120.941 33.1102C120.941 33.3975 120.708 33.6314 120.421 33.6314Z" fill="#DEE1E6"/>
<path d="M68.9915 119.601C68.8517 119.461 68.6247 119.461 68.4849 119.601L67.3701 120.718L66.2553 119.601C66.1156 119.461 65.8885 119.461 65.7487 119.601C65.609 119.741 65.609 119.969 65.7487 120.109L66.8635 121.226L65.7487 122.343C65.609 122.483 65.609 122.711 65.7487 122.851C65.8186 122.921 65.9104 122.956 66.0018 122.956C66.0932 122.956 66.185 122.921 66.2549 122.851L67.3697 121.734L68.4845 122.851C68.5543 122.921 68.6462 122.956 68.7375 122.956C68.8289 122.956 68.9207 122.921 68.9906 122.851C69.1303 122.711 69.1303 122.483 68.9906 122.343L67.8758 121.226L68.9906 120.109C69.1303 119.969 69.1303 119.741 68.9906 119.601H68.9915Z" fill="#DEE1E6"/>
<path d="M64.8704 120.851H55.048C54.85 120.851 54.6897 121.011 54.6897 121.21C54.6897 121.408 54.85 121.569 55.048 121.569H64.8704C65.0683 121.569 65.2287 121.408 65.2287 121.21C65.2287 121.011 65.0683 120.851 64.8704 120.851Z" fill="#DEE1E6"/>
<path d="M52.7164 119.953C52.0347 119.953 51.4797 120.509 51.4797 121.192C51.4797 121.876 52.0342 122.432 52.7164 122.432C53.3985 122.432 53.953 121.876 53.953 121.192C53.953 120.509 53.3985 119.953 52.7164 119.953ZM52.7164 121.714C52.4297 121.714 52.1964 121.48 52.1964 121.192C52.1964 120.905 52.4297 120.671 52.7164 120.671C53.003 120.671 53.2364 120.905 53.2364 121.192C53.2364 121.48 53.003 121.714 52.7164 121.714Z" fill="#DEE1E6"/>
<path d="M152.698 62.056L153.813 60.9387C153.952 60.7986 153.952 60.5711 153.813 60.431C153.673 60.291 153.446 60.291 153.306 60.431L152.191 61.5483L151.076 60.431C150.937 60.291 150.71 60.291 150.57 60.431C150.43 60.5711 150.43 60.7986 150.57 60.9387L151.685 62.056L150.57 63.1732C150.43 63.3133 150.43 63.5409 150.57 63.6809C150.64 63.751 150.732 63.786 150.823 63.786C150.914 63.786 151.006 63.751 151.076 63.6809L152.191 62.5637L153.306 63.6809C153.376 63.751 153.467 63.786 153.559 63.786C153.65 63.786 153.742 63.751 153.812 63.6809C153.952 63.5409 153.952 63.3133 153.812 63.1732L152.697 62.056H152.698Z" fill="#DEE1E6"/>
<path d="M149.691 61.6798H139.869C139.671 61.6798 139.51 61.8405 139.51 62.0389C139.51 62.2373 139.671 62.398 139.869 62.398H149.691C149.889 62.398 150.049 62.2373 150.049 62.0389C150.049 61.8405 149.889 61.6798 149.691 61.6798Z" fill="#DEE1E6"/>
<path d="M137.538 60.7825C136.856 60.7825 136.301 61.3382 136.301 62.0219C136.301 62.7055 136.856 63.2612 137.538 63.2612C138.22 63.2612 138.774 62.7055 138.774 62.0219C138.774 61.3382 138.219 60.7825 137.538 60.7825ZM137.538 62.543C137.251 62.543 137.018 62.3091 137.018 62.0219C137.018 61.7346 137.251 61.5007 137.538 61.5007C137.824 61.5007 138.058 61.7346 138.058 62.0219C138.058 62.3091 137.824 62.543 137.538 62.543Z" fill="#DEE1E6"/>
<path d="M43.4231 39.3968C43.2834 39.2568 43.0563 39.2568 42.9166 39.3968L41.8018 40.5141L40.6869 39.3968C40.5472 39.2568 40.3201 39.2568 40.1804 39.3968C40.0406 39.5369 40.0406 39.7645 40.1804 39.9045L41.2952 41.0218L40.1804 42.1391C40.0406 42.2791 40.0406 42.5067 40.1804 42.6468C40.2502 42.7168 40.3421 42.7518 40.4334 42.7518C40.5248 42.7518 40.6166 42.7168 40.6865 42.6468L41.8013 41.5295L42.9161 42.6468C42.986 42.7168 43.0778 42.7518 43.1692 42.7518C43.2605 42.7518 43.3524 42.7168 43.4222 42.6468C43.562 42.5067 43.562 42.2791 43.4222 42.1391L42.3074 41.0218L43.4222 39.9045C43.562 39.7645 43.562 39.5369 43.4222 39.3968H43.4231Z" fill="#DEE1E6"/>
<path d="M39.302 40.6463H29.4797C29.2817 40.6463 29.1213 40.807 29.1213 41.0054C29.1213 41.2038 29.2817 41.3645 29.4797 41.3645H39.302C39.5 41.3645 39.6603 41.2038 39.6603 41.0054C39.6603 40.807 39.5 40.6463 39.302 40.6463Z" fill="#DEE1E6"/>
<path d="M28.3847 40.9881C28.3847 40.3049 27.8302 39.7488 27.148 39.7488C26.4659 39.7488 25.9114 40.3045 25.9114 40.9881C25.9114 41.6718 26.4659 42.2275 27.148 42.2275C27.8302 42.2275 28.3847 41.6718 28.3847 40.9881ZM27.148 41.5093C26.8614 41.5093 26.628 41.2754 26.628 40.9881C26.628 40.7008 26.8614 40.467 27.148 40.467C27.4347 40.467 27.668 40.7008 27.668 40.9881C27.668 41.2754 27.4347 41.5093 27.148 41.5093Z" fill="#DEE1E6"/>
<path d="M154.022 92.4256C151.13 91.4596 147.583 89.9522 145.386 89.2569C143.188 88.5611 138.895 86.011 136.299 84.4264C133.702 82.8419 117.084 83.0353 106.789 87.3635C96.4943 91.6916 65.8578 90.2359 61.068 90.2489C56.2782 90.2619 49.4151 91.1507 49.4151 91.1507C49.4151 91.1507 32.1026 89.9527 22.8487 91.5758C22.8487 91.5758 15.9466 90.494 11.6284 91.1121C7.30982 91.7302 2.68307 94.5129 1.75771 99.1499C1.75771 99.1499 1.29504 101.468 3.68546 102.319C5.79997 103.07 16.1782 103.323 18.569 103.4C20.9594 103.478 23.89 103.864 25.1625 104.018C26.435 104.173 44.7884 107.767 46.7936 108.269C48.7988 108.772 53.6567 109.197 56.1246 109.042C58.5925 108.888 74.0924 110.318 75.5964 110.704C77.1 111.091 79.6064 112.83 82.5755 113.371C85.5446 113.911 90.2869 113.216 92.0606 113.293C93.8342 113.371 106.018 113.68 108.64 114.066C110.121 114.285 120.556 114.737 134.519 118.035C137.824 115.161 141.544 112.228 146.247 109.448C153.06 105.421 158.36 100.275 162.207 94.1435C158.78 93.5321 155.318 92.8592 154.023 92.4265L154.022 92.4256Z" fill="#F6AF9A"/>
<path d="M122.906 99.7675C126.594 97.7826 127.096 89.7776 126.889 83.5524C120.665 83.7603 112.689 84.8825 106.789 87.363C96.4939 91.6912 65.8574 90.2354 61.0676 90.2485C60.4267 90.2503 59.7481 90.2678 59.0539 90.2965C58.7578 91.6391 58.5509 94.1013 60.0563 96.5989C62.2926 100.308 72.703 99.6903 77.4458 98.4537C82.1885 97.217 87.8952 99.0718 91.0954 99.3425C94.2956 99.6131 102.162 99.188 104.166 99.6131C106.172 100.038 116.659 103.13 122.905 99.7675H122.906Z" fill="#E69381"/>
<path d="M18.3536 103.393C18.2381 102.709 17.9882 101.906 17.4507 101.777C16.4868 101.545 6.50009 100.965 6.26898 101.429C6.1046 101.758 5.92096 102.381 5.82825 102.713C9.51577 103.149 16.18 103.326 18.3541 103.393H18.3536Z" fill="#FAC0AF"/>
<path d="M17.4511 101.777C17.3266 101.747 17.0511 101.712 16.6664 101.673C16.4814 102.046 16.2042 102.646 15.9708 103.319C16.971 103.352 17.8059 103.377 18.3541 103.393C18.2385 102.709 17.9886 101.907 17.4511 101.777V101.777Z" fill="#F7BAA8"/>
<path d="M18.3533 103.393C17.9318 101.779 17.6931 101.839 16.1501 101.76C12.9243 101.625 9.68603 101.289 6.45715 101.346C9.66767 100.898 12.9557 101.223 16.1729 101.492C17.7289 101.632 18.1472 101.709 18.3528 103.393L18.3533 103.393Z" fill="#EA9A88"/>
<path d="M76.5137 111.034C76.4053 110.935 76.1688 110.73 75.8508 110.513C75.407 110.212 74.693 109.742 74.693 109.742C74.693 109.742 74.9837 110.11 74.9685 110.263C74.9532 110.416 71.0212 109.419 69.4146 109.404C67.808 109.389 60.1122 108.392 57.9699 108.392C55.8277 108.392 51.9417 108.53 51.2224 108.438C50.5031 108.346 50.1972 108.254 50.1363 107.901C50.0749 107.549 50.0749 107.073 49.9678 106.675C49.9678 106.675 49.4935 107.564 49.0497 107.901C48.6058 108.238 48.0244 107.871 47.9326 106.813C47.9326 106.813 47.6572 107.166 47.5349 107.549C47.4126 107.932 46.9074 107.871 46.7699 107.687C46.6324 107.503 46.0662 106.077 46.0662 106.077C46.0662 106.077 45.8212 106.552 45.7142 107.089C45.6071 107.626 43.511 107.089 42.6846 106.828C41.8582 106.567 29.7404 104.068 27.7518 103.823C25.7627 103.577 23.7279 103.608 23.5138 103.424C23.2997 103.24 23.422 102.458 23.1618 101.921C23.1618 101.921 22.8558 102.918 22.6261 103.071C22.3968 103.225 22.2283 102.182 22.2283 102.182C22.2283 102.182 22.0599 102.949 21.8763 102.949C21.6927 102.949 21.3102 102.167 21.2949 101.737C21.2949 101.737 20.989 102.074 20.9124 102.626C20.8358 103.179 19.872 103.255 19.4742 103.301C19.3582 103.315 19.2382 103.363 19.1262 103.423C21.3979 103.535 23.9868 103.875 25.1616 104.018C26.4341 104.172 44.7875 107.766 46.7927 108.269C48.7979 108.771 53.6558 109.196 56.1237 109.042C58.5916 108.888 74.0915 110.317 75.5955 110.704C75.8692 110.774 76.1764 110.89 76.5137 111.034Z" fill="#EDA695"/>
<path d="M57.5633 90.3737C53.4978 90.6215 49.4152 91.1503 49.4152 91.1503C49.4152 91.1503 48.2511 91.0699 46.3655 90.9788C47.0879 91.1602 47.7898 91.3702 48.1423 91.5709C49.0399 92.0822 49.5294 93.3292 49.5702 93.9222C49.5702 93.9222 49.774 93.186 49.8967 92.532C49.8967 92.532 50.5699 93.1451 50.8556 93.9019C50.8556 93.9019 50.8149 92.6549 50.6312 91.8573C50.4615 91.1198 56.1014 90.8895 57.5633 90.3737Z" fill="#EDA695"/>
<path d="M22.8491 91.5753C22.8491 91.5753 21.548 91.3715 19.7219 91.1911C20.4426 91.4294 21.4109 91.7845 21.724 92.0615C22.244 92.5216 22.0913 93.0122 22.4277 93.9935C22.4277 93.9935 22.6727 92.9812 22.7949 92.9202C22.9172 92.8587 23.1622 93.1657 23.3458 93.8094C23.3458 93.8094 23.5908 92.9507 23.6518 92.4296C23.6983 92.0327 26.138 91.3693 28.2181 90.9671C26.2755 91.1 24.4423 91.2957 22.8487 91.5753H22.8491Z" fill="#EDA695"/>
<path d="M23.4344 93.6082C23.4228 93.1337 23.3614 92.6539 23.2163 92.2C23.1442 92.0604 22.9619 91.2058 22.7442 91.542C22.5597 92.2234 22.4616 92.9183 22.424 93.6208C22.3886 94.5203 22.4235 94.5441 22.5082 93.6284C22.583 93.0502 22.7012 92.4788 22.8584 91.9181C23.051 92.5915 23.172 93.2845 23.3059 93.9727C23.3359 94.0876 23.3354 94.2272 23.387 94.3309C23.4537 94.1168 23.4273 93.8425 23.4344 93.6082Z" fill="#EA9A88"/>
<path d="M50.795 93.5262C50.6109 92.8516 49.9678 91.3815 49.3895 91.0336C49.3237 91.047 49.2852 91.1148 49.3035 91.179C49.4303 91.8425 49.4692 92.5252 49.5082 93.1994C49.5364 93.6129 49.5019 94.0393 49.5275 94.4469C49.8213 93.55 49.8074 92.514 49.6309 91.579C50.2799 92.4112 50.7525 93.3952 50.9442 94.437C50.9464 94.4541 50.9742 94.4509 50.9715 94.433C50.9325 94.1282 50.8837 93.8225 50.795 93.5262Z" fill="#EA9A88"/>
<path d="M21.32 101.43C21.3361 102.163 21.6326 102.889 21.6846 103.618C21.2864 103.404 21.2488 102.683 21.2358 102.252C21.2331 101.976 21.2483 101.7 21.2922 101.428C21.2944 101.412 21.3195 101.413 21.3195 101.43L21.32 101.43Z" fill="#EA9A88"/>
<path d="M23.2096 101.701C23.1885 102.274 23.262 103.478 22.673 103.721C22.7334 103.293 22.8956 102.877 23.0062 102.462C23.072 102.209 23.128 101.955 23.1822 101.699C23.1849 101.684 23.2096 101.685 23.2096 101.701V101.701Z" fill="#EA9A88"/>
<path d="M22.2454 101.932C22.2866 102.355 22.3538 102.793 22.3529 103.217C22.3215 103.421 22.2351 103.904 22.1182 103.431C22.0259 103.152 22.1088 102.856 22.1289 102.573C22.1544 102.486 22.1782 101.895 22.2449 101.932L22.2454 101.932Z" fill="#EA9A88"/>
<path d="M46.0743 105.795C46.1679 106.604 46.4922 107.381 46.507 108.2C46.1169 107.909 46.1043 107.193 46.0591 106.714C46.0407 106.408 46.0335 106.102 46.047 105.797C46.0474 105.781 46.0721 105.779 46.0743 105.795Z" fill="#EA9A88"/>
<path d="M50.0076 106.494C49.9413 107.172 49.777 108.33 49.1338 108.675C49.2238 108.183 49.5253 107.767 49.7008 107.311C49.8101 107.043 49.9037 106.77 49.9803 106.49C49.9839 106.475 50.009 106.478 50.0076 106.494V106.494Z" fill="#EA9A88"/>
<path d="M47.9247 106.375C47.9712 107.036 48.2288 107.962 47.7607 108.47C47.6693 108.014 47.78 107.615 47.8243 107.169C47.8539 106.905 47.8758 106.642 47.8973 106.376C47.8978 106.361 47.9224 106.359 47.9247 106.375Z" fill="#EA9A88"/>
<path d="M74.5242 109.61C74.882 109.808 75.269 110.032 75.6197 110.245C75.9641 110.447 76.4501 110.716 76.5907 111.067C76.0631 110.94 75.6614 110.557 75.2453 110.234C75.0052 110.043 74.7418 109.83 74.5085 109.633C74.4964 109.623 74.5098 109.602 74.5242 109.61Z" fill="#EA9A88"/>
<path d="M89.9471 112.084C90.6374 112.515 91.4176 112.817 92.0787 113.294C91.7235 113.426 91.208 113.091 90.9016 112.866C90.6006 112.629 90.1245 112.354 89.9471 112.084Z" fill="#EA9A88"/>
<path d="M125.21 116.126C128.064 116.624 131.191 117.248 134.519 118.034C135.045 117.577 135.582 117.117 136.132 116.658C131.723 116.098 126.853 116.104 125.211 116.126H125.21Z" fill="#EDA695"/>
<path d="M162.207 94.1426C158.78 93.5312 155.318 92.8583 154.022 92.4256C151.131 91.4596 147.584 89.9522 145.386 89.2569C143.943 88.8004 141.596 87.5435 139.42 86.2861C139.443 86.3131 139.474 86.3459 139.513 86.3827C139.611 86.4747 141.106 87.9322 141.106 87.9322C141.106 87.9322 142.937 89.7673 143.233 90.0177C143.529 90.2682 145.207 91.6126 145.498 91.9551C145.498 91.9551 145.228 90.9788 144.636 90.2633C144.044 89.5478 143.901 89.6295 143.881 89.3637C143.861 89.098 146.268 89.7318 147.329 90.9788C148.389 92.2258 154.408 94.8635 156.081 95.0269C156.84 95.1009 158.658 95.6279 160.597 96.5342C161.16 95.755 161.696 94.9577 162.207 94.1434L162.207 94.1426Z" fill="#EDA695"/>
<path d="M139.42 86.2861C140.457 87.2234 141.472 88.1706 142.466 89.1532C143.493 90.0967 144.729 90.8334 145.55 91.991C144.78 91.416 143.9 90.6682 143.084 90.037C142.552 89.5891 142.071 89.0455 141.591 88.5431C140.903 87.7845 140.023 87.016 139.42 86.2861Z" fill="#EA9A88"/>
<path d="M60.6742 92.5414C60.6742 92.5414 59.9415 85.9719 70.9306 83.0739C78.8735 80.8712 87.2021 81.567 88.7442 81.8372C90.2864 82.1079 96.1475 80.7554 99.8489 80.0597C103.55 79.3639 116.198 74.2632 128.536 78.9388C136.325 81.9531 137.327 86.8221 140.875 89.9522C144.422 93.0823 128.691 102.55 114.964 100.502C101.237 98.4541 96.6877 96.9853 94.3743 97.1012C92.0609 97.217 81.8816 96.5216 78.6039 96.251C75.3262 95.9803 61.7926 101.584 60.6747 92.5414H60.6742Z" fill="#F6AF9A"/>
<path d="M103.897 86.8996C104.083 89.0529 104.028 91.3426 105.015 93.3141C103.691 91.5774 103.688 88.9887 103.897 86.8996Z" fill="#EA9A88"/>
<path d="M89.9195 84.3638C89.8349 83.5096 89.6826 82.5772 89.0878 81.9165C88.9816 81.8218 88.8437 81.6705 88.6883 81.7105C88.5396 81.7778 88.6399 81.9326 88.6712 82.0449C88.9127 82.891 88.8782 83.7883 88.8213 84.6587C89.0533 83.8718 89.1402 83.0302 88.9902 82.2186C89.5361 82.957 89.7063 83.9024 89.9392 84.7745C89.9357 84.6376 89.9276 84.5012 89.9195 84.3638Z" fill="#EA9A88"/>
<path d="M81.8422 87.7498C81.7289 89.6423 81.8458 91.5276 82.1893 93.3918C81.4704 91.6268 81.3477 89.5906 81.8422 87.7498Z" fill="#EA9A88"/>
<path d="M84.5027 87.5953C85.1235 89.4775 85.3049 91.5913 84.7342 93.5076C84.9228 91.5352 84.7481 89.5565 84.5027 87.5953Z" fill="#EA9A88"/>
<path d="M83.1913 89.1023C83.3763 90.295 83.4067 91.4908 83.4229 92.6961C83.0287 91.5505 82.9965 90.2914 83.1913 89.1023Z" fill="#EA9A88"/>
<path d="M64.5682 89.4501C64.5682 89.4501 63.9515 92.9667 65.9177 95.3624C66.8816 96.6763 73.7066 94.9759 75.7884 94.2806C76.7138 91.6528 75.904 87.7112 74.5545 85.9722C73.3976 85.6629 66.0718 86.9768 64.5682 89.4501Z" fill="#FAC0AF"/>
<path d="M73.7644 85.9353C73.3658 87.3448 72.6012 91.2384 75.0924 94.4978C75.3603 94.4188 75.5954 94.3452 75.7894 94.2806C76.7147 91.6528 75.9049 87.7111 74.5554 85.9721C74.3973 85.9299 74.1232 85.9178 73.7644 85.9353Z" fill="#F7BAA8"/>
<path d="M76.3327 91.0253C76.2614 89.8039 76.0097 88.5941 75.5573 87.4553C75.2846 86.9323 74.9733 85.7917 74.2858 85.772C71.5285 85.8335 66.1565 87.0576 64.5682 89.4497C65.9321 87.3767 72.0244 85.9434 74.4255 86.127C75.9215 88.0752 76.3568 91.5437 75.7455 93.9022C75.7181 94.0351 75.6559 94.1787 75.5085 94.2119C74.9034 94.4058 74.2907 94.5809 73.6766 94.7452C71.3704 95.2834 68.9813 96.0209 66.595 95.7377C69.4086 96.2171 72.8601 95.2345 75.5995 94.501C76.394 94.2842 76.3622 91.7377 76.3322 91.0248L76.3327 91.0253Z" fill="#EA9A88"/>
<path d="M107.813 80.0967C107.879 80.0707 107.946 80.0487 108.015 80.0294C109.09 79.7313 118.016 77.3993 125.721 79.8278C129.423 80.9873 131.466 82.0691 132.083 83.2286C132.7 84.3881 128.266 84.0402 124.873 82.9193C121.48 81.7984 116.275 81.1417 112.149 81.6826C108.052 82.2199 103.346 81.8424 107.813 80.0963V80.0967Z" fill="#FAB6A2"/>
<path d="M91.3083 16.3843H84.3453C83.8342 16.3843 83.4199 16.7995 83.4199 17.3117V32.9993C83.4199 33.5115 83.8342 33.9267 84.3453 33.9267H91.3083C91.8193 33.9267 92.2336 33.5115 92.2336 32.9993V17.3117C92.2336 16.7995 91.8193 16.3843 91.3083 16.3843Z" fill="#F1AE0F"/>
<path d="M83.4204 19.9731V32.9993C83.4204 33.5115 83.8347 33.9267 84.3457 33.9267H91.3083C91.8193 33.9267 92.2336 33.5115 92.2336 32.9993V25.9985L83.4199 19.9727L83.4204 19.9731Z" fill="#FECA4F"/>
<path d="M98.549 74.691H60.4985C59.8755 74.691 59.3702 74.1846 59.3702 73.5602V35.5656H99.6772V73.5607C99.6772 74.1851 99.172 74.6914 98.549 74.6914V74.691Z" fill="#FECA4F"/>
<path d="M51.2391 38.4789L78.5043 19.3689C79.1179 18.9389 79.9331 18.9339 80.5516 19.3568L108.515 38.4744C108.999 38.8057 108.765 39.5647 108.179 39.5647H51.5804C50.9977 39.5647 50.7612 38.8129 51.2391 38.478V38.4789Z" fill="#FECA4F"/>
<path d="M99.6775 40.8699L95.0319 37.6936C94.1962 47.2585 89.182 68.7871 59.371 70.1611V73.5605C59.371 74.1849 59.8762 74.6913 60.4992 74.6913H98.5497C99.1727 74.6913 99.678 74.1849 99.678 73.5605V40.8699H99.6775Z" fill="#F1AE0F"/>
<path d="M80.5515 26.2259C79.933 25.8031 79.1178 25.808 78.5042 26.2381L59.3701 39.6485V41.2169L78.5042 27.8065C79.1178 27.3764 79.933 27.3715 80.5515 27.7943L99.6771 40.8704V39.5659H100.064L80.5515 26.2259Z" fill="#F1AE0F"/>
<path d="M79.5282 59.8068C83.6189 59.8068 86.935 56.4833 86.935 52.3836C86.935 48.2838 83.6189 44.9604 79.5282 44.9604C75.4375 44.9604 72.1213 48.2838 72.1213 52.3836C72.1213 56.4833 75.4375 59.8068 79.5282 59.8068Z" fill="#DF9F08"/>
<path d="M89.0405 51.7646H70.0157V53.2199H89.0405V51.7646Z" fill="#FECA4F"/>
<path d="M78.8021 42.9592V62.0261H80.2542V42.9592H78.8021Z" fill="#FECA4F"/>
</g>
<defs>
<clipPath id="clip0_0_58">
<rect width="170" height="137" fill="white"/>
</clipPath>
</defs>
</svg>
