<svg width="154" height="18" viewBox="0 0 154 18" fill="none" xmlns="http://www.w3.org/2000/svg">
<g clip-path="url(#clip0_0_281)">
<path d="M0.4268 3.73292L0 2.09479C0.901417 1.289 2.18359 0.244141 3.37013 0.244141C4.91263 0.244141 6.26564 1.57236 7.45218 1.57236C8.28453 1.57236 9.27981 1.04993 9.96871 0.670941L10.3725 2.30908C9.63577 3.09184 8.35537 3.99326 7.23967 3.99326C5.7928 3.99326 4.39197 2.66504 3.06198 2.66504C2.20661 2.66504 1.13872 3.35217 0.4268 3.73292Z" fill="#F1AE0F"/>
<path d="M148.211 8.65173C148.211 8.04961 148.606 7.74678 149.208 7.74678C150.391 7.74678 151.319 8.35067 152.966 8.7208L153.43 6.23969C152.038 6.09979 150.993 5.89081 149.601 5.89081C146.794 5.89081 145.473 7.1907 145.473 9.25563C145.473 12.7586 150.901 13.1075 150.901 15.2397C150.901 15.7267 150.554 16.0508 149.904 16.0508C148.303 16.0508 147.212 15.2857 145.542 15.1228L145.078 17.6039C146.539 17.7208 147.722 17.951 149.578 17.951C152.199 17.951 153.614 16.6529 153.614 14.379C153.614 11.016 148.209 10.621 148.209 8.64819L148.211 8.65173ZM133.06 5.89081C129.883 5.89081 127.446 8.27983 127.446 12.1317C127.446 15.5177 129.603 17.9546 133.547 17.9546C136.122 17.9546 137.376 17.1435 137.376 17.1435V15.3583C137.376 15.3583 136.099 15.9144 134.707 15.9144C131.785 15.9144 130.694 14.2905 130.556 12.1334H137.978C138.164 7.88845 136.216 5.89258 133.06 5.89258V5.89081ZM130.625 10.3696C130.765 8.53662 131.645 7.58562 132.853 7.58562C133.896 7.58562 134.709 8.55964 134.709 10.1836L130.627 10.3696H130.625ZM28.7101 5.89081C25.533 5.89081 23.0961 8.27983 23.0961 12.1317C23.0961 15.5177 25.2532 17.9546 29.1971 17.9546C31.7721 17.9546 33.0259 17.1435 33.0259 17.1435V15.3583C33.0259 15.3583 31.749 15.9144 30.3571 15.9144C27.435 15.9144 26.3441 14.2905 26.2059 12.1334H33.628C33.814 7.88845 31.8659 5.89258 28.7101 5.89258V5.89081ZM26.275 10.3696C26.4131 8.53662 27.2951 7.58562 28.5011 7.58562C29.5442 7.58562 30.3571 8.55964 30.3571 10.1836L26.275 10.3696ZM50.4432 0.485854L49.8854 0.0679086L45.8494 0.322926V1.83178H47.3582V16.0508H45.8742V17.7208H51.9273V16.0508H50.4432V0.485854ZM43.6569 15.2627L43.6339 10.1358C43.6339 7.11986 42.1499 5.89081 39.203 5.89081C37.0229 5.89081 35.213 6.54075 35.213 6.54075V8.32588C35.213 8.32588 36.651 8.02482 37.7189 8.02482C39.8069 8.02482 40.595 8.53485 40.595 10.4599V11.0638C39.922 11.0638 39.0879 11.0868 38.2059 11.2037C35.4698 11.5278 34.1469 12.8046 34.1469 14.8696C34.1469 16.5626 35.2148 18.0006 37.533 18.0006C38.8789 18.0006 40.0389 17.4906 41.0129 16.6777C41.2909 17.3967 42.0808 17.9528 43.1469 17.9528C44.3529 17.9528 45.095 17.4428 45.095 17.4428V15.6328C44.144 16.2367 43.6569 16.0508 43.6569 15.2627ZM38.8329 15.9357C37.765 15.9357 37.1859 15.3796 37.1859 14.5437C37.1859 13.5236 37.9049 13.0136 38.8329 12.8277C39.9468 12.6187 40.5507 12.6877 40.5507 12.6877V13.4298C40.5507 14.7757 40.6198 15.4239 40.6198 15.4239C40.6198 15.4239 39.9698 15.9339 38.8346 15.9339L38.8329 15.9357ZM23.2254 6.12281H18.4704V7.74678H19.6994L18.1215 12.5726C17.7496 13.7326 17.5654 14.8448 17.5654 14.8448H17.5194C17.5194 14.8448 17.3565 13.8247 17.0554 12.7108L15.1764 5.9829L12.5094 6.12281L10.7455 12.9428C10.5135 13.8247 10.3523 14.8448 10.3523 14.8448H10.3063C10.3063 14.8448 10.0973 13.9398 9.79449 12.9428L8.3423 8.29577C9.12152 7.97346 9.87064 7.38904 10.37 6.85776L9.96627 5.21962C9.27737 5.59861 8.28209 6.12104 7.44974 6.12104C6.2632 6.12104 4.91019 4.79282 3.36769 4.79282C2.18115 4.79282 0.898975 5.83591 -0.00244141 6.64347L0.424359 8.2816C1.13628 7.90085 2.20417 7.21372 3.05954 7.21372C3.8122 7.21372 4.58788 7.64052 5.38304 8.01065L8.68587 17.7208H11.1617L12.9468 10.9008C13.1558 10.088 13.3187 9.06791 13.3187 9.06791H13.4108C13.4108 9.06791 13.5277 9.97287 13.8057 10.9487L15.7219 17.7208H18.0507L21.9928 7.74501H23.2219V6.12104L23.2254 6.12281ZM56.5088 13.9628V7.74678H59.8948V6.12281H56.5088L56.5318 3.43273H55.4869L53.677 6.12281H51.9379V7.74678H53.5389C53.5389 7.74678 53.4468 8.46578 53.4468 9.48586V14.1488C53.4468 16.6529 54.5377 17.9528 56.9958 17.9528C58.6888 17.9528 59.9179 17.2568 59.9179 17.2568V15.516C59.9179 15.516 59.082 15.9339 58.1788 15.9339C56.9728 15.9339 56.5088 15.4239 56.5088 13.9628ZM72.5643 10.065C72.5643 7.42092 71.3352 5.88904 68.9692 5.88904C67.3683 5.88904 65.9763 6.4221 65.0023 7.30404L65.2343 0.415016L64.6304 -0.00292969L60.6404 0.321155V1.94689H62.1493V16.0508H60.6652V17.7208H66.3022V16.0508H65.236V10.9239C65.236 9.67003 65.1422 8.71903 65.1422 8.71903C65.1422 8.71903 66.1623 8.06909 67.4621 8.06909C68.8771 8.06909 69.481 8.67299 69.481 10.32V16.049H68.4362V17.719H74.0501V16.049H72.566V10.0667L72.5643 10.065ZM125.686 10.2509C125.686 7.026 124.154 5.88904 121.951 5.88904C120.536 5.88904 119.213 6.4221 118.331 7.1659L118.377 6.42387L117.773 6.00593L113.783 6.14583V7.74678H115.292V16.0508H113.783V17.7208H119.443V16.0508H118.375V10.9239C118.375 9.67003 118.283 8.71903 118.283 8.71903C118.283 8.71903 119.349 8.06909 120.695 8.06909C122.041 8.06909 122.599 8.83414 122.599 10.552V16.049H121.531V17.719H127.166V16.049H125.682V10.2527L125.686 10.2509ZM142.774 0.485854L142.216 0.0679086L138.18 0.322926V1.83178H139.687V16.0508H138.203V17.7208H144.256V16.0508H142.772V0.485854H142.774ZM111.414 10.2527C111.414 7.02777 109.882 5.89081 107.679 5.89081C106.264 5.89081 104.943 6.42387 104.061 7.16767L104.107 6.42564L103.503 6.0077L99.5129 6.1476V7.74855H101.022V16.0526H99.5129V17.7226H105.173V16.0526H104.105V10.9256C104.105 9.67181 104.013 8.7208 104.013 8.7208C104.013 8.7208 105.079 8.07086 106.425 8.07086C107.771 8.07086 108.327 8.83591 108.327 10.5537V16.0508H107.259V17.7208H112.896V16.0508H111.412V10.2527H111.414ZM82.0141 3.8489C82.0141 2.57381 82.3612 1.96992 83.337 1.96992C84.3801 1.96992 85.007 2.59683 86.5371 2.92092L87.0702 0.439809C85.6552 0.324697 84.775 0.092702 83.4291 0.092702C80.507 0.092702 78.9291 1.94866 78.9291 4.63875V6.12281H77.3972V7.74678H78.9291V16.0508H77.3972V17.7208H83.7532V16.0508H82.0123V7.74678H85.1664V6.12281H82.0123V3.8489H82.0141ZM97.1912 15.2627V8.78987L97.2833 6.30699L96.4492 6.00593L92.9692 6.12281V7.74678H94.1062V13.1057C94.1062 14.2426 94.2 15.4487 94.2 15.4487C94.2 15.4487 93.481 15.9127 92.252 15.9127C90.7892 15.9127 90.0702 15.0325 90.0702 13.6866V8.79164L90.1623 6.30876L89.3281 6.0077L85.85 6.12458V7.74855H86.9869V13.8034C86.9869 16.4245 88.5649 17.9563 90.9291 17.9563C92.6451 17.9563 93.899 17.3294 94.5489 16.6813C94.827 17.4003 95.615 17.9563 96.6829 17.9563C97.8907 17.9563 98.631 17.4463 98.631 17.4463V15.6364C97.68 16.2403 97.193 16.0543 97.193 15.2663L97.1912 15.2627Z" fill="#202A44"/>
</g>
<defs>
<clipPath id="clip0_0_281">
<rect width="153.616" height="18" fill="white"/>
</clipPath>
</defs>
</svg>
