<svg width="16" height="14" viewBox="0 0 16 14" fill="none" xmlns="http://www.w3.org/2000/svg">
<path fill-rule="evenodd" clip-rule="evenodd" d="M15.7266 6.15204C15.5825 5.86935 15.1981 5.55346 15.1981 5.55346L13.6127 1.24699C13.2763 0.432293 12.3155 0 11.899 0H4.11586C3.69948 0 2.72256 0.432293 2.40223 1.24699L0.816766 5.55346C0.816766 5.55346 0.432378 5.86937 0.288276 6.15204C0.144175 6.43471 0 6.68412 0 8.59615C0 10.4584 0.368328 11.1235 0.800764 11.3396L1.2492 11.3729V13.1188C1.2492 13.6841 1.56947 14 2.09796 14H2.5624C3.09088 14 3.36316 13.6841 3.36316 13.1188L3.3631 11.3729H12.6357V13.1188C12.6357 13.6841 12.924 14 13.4365 14H13.9009C14.4294 14 14.7497 13.6841 14.7497 13.1188V11.3729L15.1981 11.3396C15.6466 11.1068 15.9989 10.4417 15.9989 8.59615C16.0148 6.68412 15.8547 6.43461 15.7266 6.15204H15.7266ZM3.09088 9.49403C2.53033 9.49403 2.06597 9.01183 2.06597 8.42993C2.06597 7.84795 2.53041 7.36584 3.09088 7.36584C3.65144 7.36584 4.1158 7.84803 4.1158 8.42993C4.11586 9.01185 3.66742 9.49403 3.09088 9.49403ZM12.956 9.49403C12.3955 9.49403 11.9311 9.01183 11.9311 8.42993C11.9311 7.84795 12.3955 7.36584 12.956 7.36584C13.5166 7.36584 13.9809 7.84803 13.9809 8.42993C13.981 9.01185 13.5166 9.49403 12.956 9.49403ZM12.924 4.80515H3.09089C3.09089 4.80515 2.89872 4.82176 2.96278 4.62225C3.01083 4.45597 3.66743 2.72683 3.81153 2.2612C3.87559 2.09492 4.19592 1.72913 4.6283 1.7458H11.4025C11.8349 1.71252 12.1552 2.09498 12.2193 2.2612C12.3634 2.72678 13.02 4.45597 13.068 4.62225C13.1161 4.82176 12.924 4.80515 12.924 4.80515H12.924Z" fill="#9499A8"/>
</svg>
