<svg width="20" height="16" viewBox="0 0 20 16" fill="none" xmlns="http://www.w3.org/2000/svg">
<path d="M19.6916 9.62734C19.6916 9.53645 19.6643 9.44855 19.6068 9.37583L16.4643 5.4455V1.52433C16.4643 1.07888 16.1037 0.715218 15.6552 0.715218L4.34315 0.715283C3.8977 0.715283 3.53404 1.0759 3.53404 1.5244V5.44857L0.391536 9.3759C0.333984 9.44862 0.306706 9.53951 0.306706 9.6274H0.303711V15.2819H1.51583L2.32494 14.4728H17.6764L18.4855 15.2849H19.6976V9.6274L19.6916 9.62734ZM10.6068 3.1395C10.6068 2.91528 10.7886 2.73643 11.0098 2.73643L14.2432 2.7365C14.4674 2.7365 14.6462 2.91833 14.6462 3.13957V4.75473C14.6462 4.97895 14.4644 5.1578 14.2432 5.1578L11.0098 5.15767C10.7856 5.15767 10.6068 4.97584 10.6068 4.7546V3.1395ZM5.35527 3.1395C5.35527 2.91528 5.5371 2.73643 5.75833 2.73643H8.99167C9.21588 2.73643 9.39473 2.91827 9.39473 3.1395V4.75467C9.39473 4.97888 9.2129 5.15773 8.99167 5.15773L5.75833 5.15767C5.53412 5.15767 5.35527 4.97584 5.35527 4.7546V3.1395ZM4.13405 5.991H15.8644L18.4492 9.22433H1.54922L4.13405 5.991Z" fill="#9499A8"/>
</svg>
