<svg width="14" height="18" viewBox="0 0 14 18" fill="none" xmlns="http://www.w3.org/2000/svg">
<path fill-rule="evenodd" clip-rule="evenodd" d="M3.63315 6.6758e-05C3.58146 6.6758e-05 3.52912 0.0144523 3.48083 0.0327325C3.43254 0.0510125 3.38688 0.0770811 3.34845 0.111151L0.14441 2.95576C0.13784 2.96161 0.130613 2.96258 0.124481 2.96885V2.97534C0.0781644 3.0212 0.0391811 3.07734 0.0185973 3.13878C-0.00198648 3.20021 -0.00406897 3.26436 0.00545737 3.32839V17.5775C0.00545737 17.6323 0.0172831 17.6904 0.0385262 17.741C0.059769 17.7916 0.0919609 17.8396 0.131163 17.8784C0.170363 17.9171 0.212301 17.9424 0.263549 17.9634C0.314794 17.9844 0.373596 17.9961 0.42911 17.9961H10.3061C10.3655 18.0041 10.4274 17.9999 10.4848 17.9831C10.5422 17.9661 10.5984 17.9368 10.6437 17.8981C10.6469 17.8956 10.6473 17.8943 10.6503 17.8916L13.861 15.047C13.9052 15.0078 13.9428 14.9632 13.9669 14.9096C13.9911 14.8561 14 14.7982 14 14.7396V0.41849C14 0.363758 13.9882 0.312166 13.9669 0.261542C13.9457 0.210922 13.9201 0.163004 13.8809 0.124174C13.8417 0.0854521 13.793 0.0535422 13.7418 0.0326666C13.6906 0.0116827 13.6318 0 13.5762 0H3.63307L3.63315 6.6758e-05ZM3.7986 0.837141H12.4641L10.2001 2.84468H1.53458L3.7986 0.837141ZM13.1528 1.35373V14.55L10.7961 16.6426V3.44628L13.1528 1.35373ZM2.48811 5.10713H4.12326V7.53977H2.48811V5.10713ZM6.67859 5.10713H8.30707V7.53977H6.67859V5.10713ZM2.48811 9.75022H4.12326V12.1829H2.48811V9.75022ZM6.67859 9.75022H8.30707V12.1829H6.67859V9.75022ZM3.69292 15.3085H4.97723V17.1591H3.69292V15.3085ZM5.82454 15.3085H7.10218V17.1591H5.82454V15.3085Z" fill="#9499A8"/>
</svg>
