<svg width="18" height="18" viewBox="0 0 18 18" fill="none" xmlns="http://www.w3.org/2000/svg">
<path d="M8.1001 3.60003H18.0002V6.30006H8.1001V3.60003Z" fill="#9499A8"/>
<path d="M11.7001 1.80002H14.4002L18.0002 3.60003H8.1001L11.7001 1.80002Z" fill="#9499A8"/>
<path d="M11.7001 0H14.4002V1.80002H11.7001V0Z" fill="#9499A8"/>
<path fill-rule="evenodd" clip-rule="evenodd" d="M7.20007 8.10007H0V12.6001H7.20007V8.10007ZM2.25002 9.90009C2.00149 9.90009 1.80002 10.1016 1.80002 10.3501C1.80002 10.5986 2.00149 10.8001 2.25002 10.8001H4.95004C5.19858 10.8001 5.40005 10.5986 5.40005 10.3501C5.40005 10.1016 5.19858 9.90009 4.95004 9.90009H2.25002Z" fill="#9499A8"/>
<path fill-rule="evenodd" clip-rule="evenodd" d="M7.20007 13.5001H0V18.0002H7.20007V13.5001ZM2.25002 15.3001C2.00149 15.3001 1.80002 15.5016 1.80002 15.7501C1.80002 15.9987 2.00149 16.2001 2.25002 16.2001H4.95004C5.19858 16.2001 5.40005 15.9987 5.40005 15.7501C5.40005 15.5016 5.19858 15.3001 4.95004 15.3001H2.25002Z" fill="#9499A8"/>
<path fill-rule="evenodd" clip-rule="evenodd" d="M18.0002 8.10007H8.1001V18.0002H18.0002V8.10007ZM10.3501 9.90009C10.1016 9.90009 9.90011 10.1016 9.90011 10.3501C9.90011 10.5986 10.1016 10.8001 10.3501 10.8001C10.5986 10.8001 10.8001 10.5986 10.8001 10.3501C10.8001 10.1016 10.5986 9.90009 10.3501 9.90009ZM10.8001 12.6001C10.3031 12.6001 9.90011 13.0031 9.90011 13.5001V15.3001C9.90011 15.7972 10.3031 16.2001 10.8001 16.2001H15.3002C15.7972 16.2001 16.2002 15.7972 16.2002 15.3001V13.5001C16.2002 13.0031 15.7972 12.6001 15.3002 12.6001H10.8001ZM15.3002 10.3501C15.3002 10.1016 15.5016 9.90009 15.7502 9.90009C15.9987 9.90009 16.2002 10.1016 16.2002 10.3501C16.2002 10.5986 15.9987 10.8001 15.7502 10.8001C15.5016 10.8001 15.3002 10.5986 15.3002 10.3501ZM13.0501 9.90009C12.8016 9.90009 12.6001 10.1016 12.6001 10.3501C12.6001 10.5986 12.8016 10.8001 13.0501 10.8001C13.2987 10.8001 13.5001 10.5986 13.5001 10.3501C13.5001 10.1016 13.2987 9.90009 13.0501 9.90009Z" fill="#9499A8"/>
</svg>
