<svg width="16" height="18" viewBox="0 0 16 18" fill="none" xmlns="http://www.w3.org/2000/svg">
<path d="M3.18922 2.65583C3.18922 2.06072 3.3902 1.65805 3.82163 1.38872C4.23485 1.13072 4.8497 0.999984 5.6493 0.999984C7.34113 0.999984 7.85897 1.58553 8.02363 2.06203C6.3078 2.28885 4.99297 3.49172 4.99297 4.9412H4.9929C4.9929 5.07382 5.04557 5.20103 5.13932 5.29478C5.23314 5.38853 5.36029 5.44121 5.49291 5.44121H11.7231C11.8557 5.44121 11.9828 5.38853 12.0767 5.29478C12.1704 5.20103 12.2231 5.07382 12.2231 4.9412C12.2231 3.4507 10.8333 2.21953 9.04624 2.04403C8.85458 1.13173 8.11903 3.43323e-05 5.64924 3.43323e-05C4.65953 3.43323e-05 3.86641 0.181868 3.29208 0.540534C2.57059 0.990868 2.18921 1.72243 2.18921 2.65587V9.02253H3.18921L3.18922 2.65583Z" fill="#9499A8"/>
<path d="M10.056 7.28139C10.1621 7.28139 10.2638 7.23921 10.3388 7.16421C10.4138 7.08921 10.456 6.98746 10.456 6.88139V6.34526C10.456 6.20235 10.3798 6.07026 10.256 5.99884C10.1322 5.92735 9.97977 5.92735 9.85601 5.99884C9.73224 6.07026 9.65601 6.20236 9.65601 6.34526V6.88139C9.65601 6.98744 9.69813 7.08921 9.77313 7.16421C9.84819 7.23921 9.94988 7.28139 10.056 7.28139H10.056Z" fill="#9499A8"/>
<path d="M8.60776 7.28139C8.71382 7.28139 8.81558 7.23921 8.89058 7.16421C8.96558 7.08921 9.00776 6.98746 9.00776 6.88139V6.34526C9.00776 6.20235 8.93153 6.07026 8.80776 5.99884C8.684 5.92735 8.53153 5.92735 8.40776 5.99884C8.284 6.07026 8.20776 6.20236 8.20776 6.34526V6.88139C8.20776 6.98744 8.24989 7.08921 8.32489 7.16421C8.39995 7.23921 8.50164 7.28139 8.60777 7.28139H8.60776Z" fill="#9499A8"/>
<path d="M7.15952 7.28139C7.26564 7.28139 7.36733 7.23921 7.4424 7.16421C7.5174 7.08921 7.55952 6.98746 7.55952 6.88139V6.34526C7.55952 6.20235 7.48328 6.07026 7.35952 5.99884C7.23576 5.92735 7.08329 5.92735 6.95952 5.99884C6.83576 6.07026 6.75952 6.20236 6.75952 6.34526V6.88139C6.75952 6.98744 6.80171 7.08921 6.87671 7.16421C6.95171 7.23921 7.05346 7.28139 7.15953 7.28139H7.15952Z" fill="#9499A8"/>
<path d="M10.7796 9.02231C10.8857 9.02231 10.9875 8.98019 11.0625 8.90519C11.1375 8.83012 11.1796 8.72844 11.1796 8.62231V8.08617C11.1796 7.94327 11.1034 7.81124 10.9796 7.73976C10.8559 7.66834 10.7034 7.66834 10.5796 7.73976C10.4559 7.81124 10.3796 7.94327 10.3796 8.08617V8.62231C10.3796 8.72843 10.4218 8.83012 10.4968 8.90519C10.5718 8.98019 10.6735 9.02231 10.7796 9.02231H10.7796Z" fill="#9499A8"/>
<path d="M9.33139 9.02231C9.43745 9.02231 9.53921 8.98019 9.61421 8.90519C9.68921 8.83012 9.7314 8.72844 9.7314 8.62231V8.08617C9.7314 7.94327 9.65516 7.81124 9.5314 7.73976C9.40763 7.66834 9.25516 7.66834 9.1314 7.73976C9.00763 7.81124 8.9314 7.94327 8.9314 8.08617V8.62231C8.9314 8.72843 8.97352 8.83012 9.04852 8.90519C9.12358 8.98019 9.22527 9.02231 9.3314 9.02231H9.33139Z" fill="#9499A8"/>
<path d="M7.88413 9.02231C7.99018 9.02231 8.09194 8.98019 8.16694 8.90519C8.24194 8.83012 8.28413 8.72844 8.28413 8.62231V8.08617C8.28413 7.94327 8.20789 7.81124 8.08413 7.73976C7.96037 7.66834 7.8079 7.66834 7.68413 7.73976C7.56037 7.81124 7.48413 7.94327 7.48413 8.08617V8.62231C7.48413 8.72843 7.52625 8.83012 7.60125 8.90519C7.67632 8.98019 7.778 9.02231 7.88414 9.02231H7.88413Z" fill="#9499A8"/>
<path d="M6.43589 7.68656C6.32977 7.68656 6.22808 7.72874 6.15301 7.80374C6.07801 7.87874 6.03589 7.98049 6.03589 8.08656V8.62269C6.03589 8.7656 6.11213 8.89769 6.23589 8.96911C6.35965 9.0406 6.51212 9.0406 6.63589 8.96911C6.75965 8.89769 6.83589 8.76559 6.83589 8.62269V8.08656C6.83589 7.98051 6.7937 7.87874 6.7187 7.80374C6.6437 7.72874 6.54195 7.68656 6.43589 7.68656H6.43589Z" fill="#9499A8"/>
<path d="M15.3099 10.0727H0.688234C0.555618 10.0727 0.428468 10.1253 0.334718 10.2192C0.240903 10.3129 0.188232 10.4401 0.188232 10.5727V12.3638C0.189209 13.2398 0.442266 14.0968 0.917199 14.8328C1.3922 15.5688 2.0689 16.1525 2.8667 16.5142L2.47373 17.2355H2.47367C2.40954 17.3474 2.38929 17.4791 2.41696 17.6051C2.44457 17.731 2.518 17.8422 2.62308 17.917C2.73988 17.9943 2.88376 18.0191 3.01963 17.9853C3.15557 17.9514 3.27106 17.8622 3.33805 17.7392L3.3471 17.7225H3.34716C3.48473 17.476 3.68654 17.2712 3.93114 17.1301C4.17574 16.989 4.45399 16.9168 4.73629 16.9212H11.2523H11.2524C11.5361 16.9156 11.8162 16.9872 12.0624 17.1283C12.3088 17.2694 12.5121 17.4747 12.6509 17.7224L12.66 17.7392C12.727 17.8622 12.8426 17.9515 12.9786 17.9853C13.1145 18.0191 13.2585 17.9942 13.3753 17.9168C13.4802 17.8415 13.5535 17.73 13.5808 17.6038C13.6082 17.4776 13.5878 17.3458 13.5235 17.2338L13.1313 16.5142C13.9291 16.1525 14.6058 15.5687 15.0807 14.8328C15.5555 14.097 15.8087 13.2397 15.8097 12.3638V10.5727C15.8097 10.4401 15.757 10.3129 15.6632 10.2192C15.5695 10.1253 15.4423 10.0727 15.3097 10.0727L15.3099 10.0727Z" fill="#9499A8"/>
</svg>
